<svg xmlns="http://www.w3.org/2000/svg" width="500" height="500" viewBox="0 0 500 500"><rect width="500" height="500" fill="white"/><g fill="black"><rect x="20" y="20" width="16" height="16"/><rect x="57" y="73" width="16" height="16"/><rect x="94" y="126" width="16" height="16"/><rect x="131" y="179" width="16" height="16"/><rect x="168" y="232" width="16" height="16"/><rect x="205" y="285" width="16" height="16"/><rect x="242" y="338" width="16" height="16"/><rect x="279" y="391" width="16" height="16"/><rect x="316" y="24" width="16" height="16"/><rect x="353" y="77" width="16" height="16"/><rect x="390" y="130" width="16" height="16"/><rect x="427" y="183" width="16" height="16"/><rect x="44" y="236" width="16" height="16"/><rect x="81" y="289" width="16" height="16"/><rect x="118" y="342" width="16" height="16"/><rect x="155" y="395" width="16" height="16"/><rect x="192" y="28" width="16" height="16"/><rect x="229" y="81" width="16" height="16"/><rect x="266" y="134" width="16" height="16"/><rect x="303" y="187" width="16" height="16"/><rect x="340" y="240" width="16" height="16"/><rect x="377" y="293" width="16" height="16"/><rect x="414" y="346" width="16" height="16"/><rect x="31" y="399" width="16" height="16"/><rect x="68" y="32" width="16" height="16"/><rect x="105" y="85" width="16" height="16"/><rect x="142" y="138" width="16" height="16"/><rect x="179" y="191" width="16" height="16"/><rect x="216" y="244" width="16" height="16"/><rect x="253" y="297" width="16" height="16"/><rect x="290" y="350" width="16" height="16"/><rect x="327" y="403" width="16" height="16"/><rect x="364" y="36" width="16" height="16"/><rect x="401" y="89" width="16" height="16"/><rect x="438" y="142" width="16" height="16"/><rect x="55" y="195" width="16" height="16"/><rect x="92" y="248" width="16" height="16"/><rect x="129" y="301" width="16" height="16"/><rect x="166" y="354" width="16" height="16"/><rect x="203" y="407" width="16" height="16"/><rect x="240" y="40" width="16" height="16"/><rect x="277" y="93" width="16" height="16"/><rect x="314" y="146" width="16" height="16"/><rect x="351" y="199" width="16" height="16"/><rect x="388" y="252" width="16" height="16"/><rect x="425" y="305" width="16" height="16"/><rect x="42" y="358" width="16" height="16"/><rect x="79" y="411" width="16" height="16"/><rect x="116" y="44" width="16" height="16"/><rect x="153" y="97" width="16" height="16"/><rect x="190" y="150" width="16" height="16"/><rect x="227" y="203" width="16" height="16"/><rect x="264" y="256" width="16" height="16"/><rect x="301" y="309" width="16" height="16"/><rect x="338" y="362" width="16" height="16"/><rect x="375" y="415" width="16" height="16"/><rect x="412" y="48" width="16" height="16"/><rect x="29" y="101" width="16" height="16"/><rect x="66" y="154" width="16" height="16"/><rect x="103" y="207" width="16" height="16"/><rect x="140" y="260" width="16" height="16"/><rect x="177" y="313" width="16" height="16"/><rect x="214" y="366" width="16" height="16"/><rect x="251" y="419" width="16" height="16"/><rect x="288" y="52" width="16" height="16"/><rect x="325" y="105" width="16" height="16"/><rect x="362" y="158" width="16" height="16"/><rect x="399" y="211" width="16" height="16"/><rect x="436" y="264" width="16" height="16"/><rect x="53" y="317" width="16" height="16"/><rect x="90" y="370" width="16" height="16"/><rect x="127" y="423" width="16" height="16"/><rect x="164" y="56" width="16" height="16"/><rect x="201" y="109" width="16" height="16"/><rect x="238" y="162" width="16" height="16"/><rect x="275" y="215" width="16" height="16"/><rect x="312" y="268" width="16" height="16"/><rect x="349" y="321" width="16" height="16"/><rect x="386" y="374" width="16" height="16"/><rect x="423" y="427" width="16" height="16"/><rect x="40" y="60" width="16" height="16"/><rect x="77" y="113" width="16" height="16"/><rect x="114" y="166" width="16" height="16"/><rect x="151" y="219" width="16" height="16"/><rect x="188" y="272" width="16" height="16"/><rect x="225" y="325" width="16" height="16"/><rect x="262" y="378" width="16" height="16"/><rect x="299" y="431" width="16" height="16"/><rect x="336" y="64" width="16" height="16"/><rect x="373" y="117" width="16" height="16"/><rect x="410" y="170" width="16" height="16"/><rect x="27" y="223" width="16" height="16"/><rect x="64" y="276" width="16" height="16"/><rect x="101" y="329" width="16" height="16"/><rect x="138" y="382" width="16" height="16"/><rect x="175" y="435" width="16" height="16"/><rect x="212" y="68" width="16" height="16"/><rect x="249" y="121" width="16" height="16"/><rect x="286" y="174" width="16" height="16"/><rect x="323" y="227" width="16" height="16"/><rect x="360" y="280" width="16" height="16"/><rect x="397" y="333" width="16" height="16"/><rect x="434" y="386" width="16" height="16"/><rect x="51" y="439" width="16" height="16"/><rect x="88" y="72" width="16" height="16"/><rect x="125" y="125" width="16" height="16"/><rect x="162" y="178" width="16" height="16"/><rect x="199" y="231" width="16" height="16"/><rect x="236" y="284" width="16" height="16"/><rect x="273" y="337" width="16" height="16"/><rect x="310" y="390" width="16" height="16"/><rect x="347" y="23" width="16" height="16"/><rect x="384" y="76" width="16" height="16"/><rect x="421" y="129" width="16" height="16"/><rect x="38" y="182" width="16" height="16"/><rect x="75" y="235" width="16" height="16"/><rect x="112" y="288" width="16" height="16"/><rect x="149" y="341" width="16" height="16"/><rect x="186" y="394" width="16" height="16"/><rect x="223" y="27" width="16" height="16"/></g><rect x="70" y="180" width="360" height="140" rx="18" fill="white" stroke="black" stroke-width="4"/><text x="250" y="235" text-anchor="middle" font-size="26" fill="black">支付宝收款码占位图</text><text x="250" y="275" text-anchor="middle" font-size="22" fill="black">替换成你的真实二维码</text></svg>